<svg width="11" height="8" viewBox="0 0 11 8" fill="none" xmlns="http://www.w3.org/2000/svg">
    <path d="M9.42773 0.941406C9.58608 0.777742 9.82931 0.7555935 10.0088 0.878906L10.0811 0.94043L10.0869 0.946289L10.0918 0.952148C10.2414 1.13318 10.2426 1.41616 10.0488 1.59863L10.0498 1.59961L4.71387 6.955605L4.71484 6.95703C4.56029 7.11704 4.36255 7.200016 4.14746 7.20002C3.94954 7.20002 3.7355 7.11899 3.5791 6.95703V6.955605L0.93457 4.29395L0.932617 4.29199C0.755713 4.10851 0.7555599 3.81915 0.932617 3.63574C1.11291 3.44904 1.40286 3.44852 1.58398 3.63379L4.16211 6.22949L9.42773 0.941406Z" fill="white" stroke="white" stroke-width="0.4"/>
</svg>
