<svg xmlns="http://www.w3.org/2000/svg" width="1920" height="699" viewBox="0 0 1920 699" fill="none">
    <path d="M-20.1128 222.859C109.813 211.987 201.509 177.408 261.601 147.471C322.368 117.196 366.133 83.9856 446.104 66.1305C534.308 46.2915 591.94 55.1793 614.735 60.1788C646.339 67.1224 644.375 71.8441 696.075 87.9534C795.39 118.902 814.256 105.134 858.755 125.648C932.537 159.652 910.535 211.253 987.709 268.489C1043.6 309.952 1136.12 342.945 1219.83 320.07C1298.65 298.525 1307.51 244.424 1390.44 236.746C1424.5 233.592 1452.83 240.595 1509.47 254.601C1582.07 272.456 1630.81 294.478 1650.33 302.215C1708.16 325.169 1801.51 339.612 1953.87 294.279" stroke="#CEDCDE" stroke-miterlimit="10"/>
    <path d="M-20.9856 240.357C104.695 230.973 198.652 199.667 264.2 168.639C317.448 143.086 358.059 115.073 414.024 95.0558C426.265 90.6913 439.16 86.4656 453.048 82.8152C540.558 59.8416 597.972 63.6308 621.937 65.952C654.076 69.0469 654.076 72.5782 704.745 88.2312C740.455 99.2419 765.889 105.531 785.589 109.657C819.077 116.661 835.841 117.137 862.267 130.607C872.127 135.592 881.38 141.697 889.843 148.8C928.985 181.633 927.319 223.256 992.252 267.378C1048.77 305.786 1140.69 334.83 1222.96 312.115C1229.48 310.311 1235.9 308.179 1242.2 305.727C1305.81 280.948 1320.09 237.361 1392.98 230.517C1400.66 229.784 1408.38 229.566 1416.09 229.862C1442 230.775 1468.79 237.242 1511.2 247.717C1581.47 265.176 1629.46 286.78 1650.99 295.331C1666.75 301.536 1683.01 306.407 1699.59 309.893C1756.97 322.114 1838.07 323.383 1952.16 292.196" stroke="#CEDCDE" stroke-miterlimit="10"/>
    <path d="M-21.8584 259.402C99.5563 251.467 195.875 223.692 266.799 191.196C323.122 165.405 365.617 135.944 420.552 114.915C433.09 110.094 446.084 105.214 460.031 101.027C546.847 74.8995 603.963 71.7451 629.198 73.2529C661.714 75.2368 663.877 74.8598 713.435 90.0367C748.133 100.69 773.468 107.892 792.791 112.951C825.347 121.422 841 123.128 865.719 137.115C875.138 142.501 883.991 148.822 892.145 155.982C929.958 188.597 931.823 227.72 996.835 267.874C1053.99 303.207 1145.29 328.303 1226.13 305.746C1232.98 303.763 1239.31 301.779 1245.24 299.398C1310.85 274.163 1325.37 232.6 1395.58 225.994C1403.2 225.243 1410.86 224.998 1418.51 225.26C1444.86 226.033 1471.6 232.322 1512.99 242.698C1580.96 259.68 1628.15 280.928 1651.7 290.093C1667.34 296.242 1683.45 301.125 1699.87 304.695C1756.73 317.194 1837.45 319.832 1950.42 291.74" stroke="#CEDCDE" stroke-miterlimit="10"/>
    <path d="M-22.7114 279.737C94.4379 273.329 193.058 248.828 269.418 215.141C328.737 188.954 373.176 158.144 427.039 136.083C439.895 130.806 453.008 125.29 466.975 120.549C553.096 91.3062 609.816 85.1759 636.42 81.843C669.333 77.7363 673.638 78.4307 722.105 93.1314C755.831 103.388 781.066 111.522 800.112 117.514C831.715 127.433 846.297 130.409 869.31 144.891C878.216 150.688 886.618 157.225 894.426 164.433C930.91 196.81 936.425 233.413 1001.36 269.58C1059.23 301.838 1149.83 323.006 1229.25 300.588C1236.03 298.604 1242.32 296.62 1248.22 294.299C1315.79 268.508 1330.61 229.049 1398.1 222.482C1405.66 221.713 1413.27 221.441 1420.87 221.668C1447.66 222.283 1474.44 228.434 1514.73 238.611C1580.36 255.097 1626.8 275.968 1652.36 285.907C1667.9 291.963 1683.88 296.85 1700.15 300.529C1756.49 313.305 1836.84 317.332 1948.65 292.315" stroke="#CEDCDE" stroke-miterlimit="10"/>
    <path d="M-23.5845 300.112C89.3193 295.192 190.201 274.004 272.017 239.107C334.351 212.503 380.715 180.324 433.546 157.271C446.699 151.537 459.912 145.368 473.938 140.09C559.365 107.792 615.569 96.8016 643.661 90.4928C676.852 83.0333 683.339 82.0612 730.794 96.2858C763.627 106.205 788.644 115.212 807.372 122.077C838.024 133.424 851.514 137.71 872.841 152.668C881.218 158.862 889.172 165.609 896.648 172.864C931.823 204.964 940.988 239.067 1005.86 271.365C1064.45 300.529 1154.34 317.789 1232.34 295.529C1239.05 293.545 1245.3 291.561 1251.17 289.28C1320.73 262.953 1335.8 225.795 1400.6 219.149C1408.11 218.39 1415.67 218.092 1423.22 218.256C1450.39 218.732 1477.1 224.724 1516.46 234.703C1579.78 250.733 1625.45 271.246 1653.01 281.9C1668.44 287.896 1684.28 292.795 1700.41 296.561C1756.25 309.635 1836.22 315.011 1946.91 293.109" stroke="#CEDCDE" stroke-miterlimit="10"/>
    <path d="M-24.4177 313.245C84.2405 309.813 187.403 291.958 274.655 255.851C339.985 228.81 388.293 195.203 440.093 171.238C453.524 165.028 466.876 158.283 480.941 152.41C565.634 117.057 621.382 101.305 650.882 91.8815C684.371 81.2081 693.159 78.4108 739.464 92.1791C765.035 99.81 790.135 108.938 814.634 119.517C844.392 132.274 856.752 137.908 876.333 153.244C884.883 159.969 891.668 167.131 899.009 174.094C932.874 205.837 945.71 237.579 1010.46 265.909C1069.82 291.958 1158.96 305.33 1235.54 283.229C1242.18 281.245 1248.39 279.261 1254.23 277.019C1325.79 250.217 1341.12 215.022 1403.22 208.575C1410.67 207.814 1418.16 207.496 1425.66 207.622C1453.27 207.999 1479.93 213.772 1518.22 223.494C1579.23 239.008 1624.14 259.204 1653.68 270.572C1669.02 276.504 1684.74 281.409 1700.72 285.253C1756.05 298.624 1835.63 305.389 1945.18 286.562" stroke="#CEDCDE" stroke-miterlimit="10"/>
    <path d="M-25.3303 322.609C79.0625 320.625 184.507 306.083 277.215 268.806C345.54 241.329 395.753 206.253 446.56 181.514C460.289 174.809 473.74 167.468 487.865 161.04C571.923 122.691 627.234 102.198 658.124 89.6198C691.85 75.8317 702.92 71.11 748.153 84.4022C773.498 91.8512 798.161 101.448 821.875 113.089C850.661 127.215 861.969 134.238 879.844 150.109C887.78 157.112 894.029 164.572 901.31 171.615C933.886 203.159 950.412 232.163 1015.01 256.744C1075.18 279.638 1163.54 289.161 1238.69 267.199C1245.26 265.215 1251.41 263.231 1257.24 261.029C1330.81 233.81 1346.46 200.639 1405.78 194.429C1413.18 193.649 1420.62 193.304 1428.06 193.398C1456.07 193.636 1482.73 199.23 1519.97 208.833C1578.65 223.89 1622.8 243.71 1654.36 255.831C1669.59 261.688 1685.17 266.598 1701 270.532C1755.84 284.201 1835.03 292.355 1943.45 276.583" stroke="#CEDCDE" stroke-miterlimit="10"/>
    <path d="M-26.1833 332.113C73.9441 331.656 181.63 320.348 279.833 281.9C351.135 253.967 403.232 217.383 453.048 191.751C467.074 184.51 480.664 176.575 494.829 169.631C578.212 128.326 633.126 103.17 665.345 87.2989C699.528 70.4754 712.681 63.7698 756.823 76.5858C781.984 83.9568 806.24 94.125 829.136 106.9C856.911 122.354 867.187 130.846 883.376 147.114C890.637 154.414 896.39 162.112 903.592 169.294C934.898 200.5 955.173 226.926 1019.57 247.717C1080.58 267.417 1168.11 273.111 1241.77 251.328C1248.27 249.344 1254.39 247.36 1260.18 245.178C1335.74 217.403 1351.58 186.315 1408.28 180.146C1415.62 179.364 1423 178.993 1430.38 179.035C1458.83 179.035 1485.45 184.55 1521.64 193.993C1578.02 208.535 1621.37 228.037 1654.95 240.853C1670.08 246.66 1685.53 251.589 1701.22 255.613C1755.54 269.501 1834.36 279.043 1941.63 266.406" stroke="#CEDCDE" stroke-miterlimit="10"/>
    <path d="M-27.0564 341.655C68.8255 342.686 178.773 334.652 282.432 295.033C356.729 266.643 410.711 228.533 459.555 202.127C473.839 194.41 487.587 185.938 501.772 178.32C584.501 134.059 639.058 104.241 672.586 85.0767C707.185 65.2376 722.442 56.5084 765.512 68.8483C790.482 76.1342 814.333 86.8148 836.397 100.591C863.318 117.394 872.385 127.354 886.887 144.018C893.494 151.637 898.79 159.533 905.893 166.853C935.929 197.742 959.915 221.53 1024.11 238.591C1085.99 255.038 1172.67 256.982 1244.96 235.337C1251.41 233.354 1257.48 231.37 1263.23 229.247C1340.82 201.056 1356.87 171.952 1410.89 165.901C1418.18 165.118 1425.51 164.72 1432.84 164.711C1461.7 164.532 1488.39 169.928 1523.48 179.173C1577.52 193.239 1620.12 212.404 1655.71 225.934C1670.72 231.701 1686.03 236.662 1701.58 240.793C1755.4 255.038 1833.84 265.89 1939.98 256.347" stroke="#CEDCDE" stroke-miterlimit="10"/>
    <path d="M-27.9292 351.158C63.7072 353.618 175.956 348.837 285.071 308.068C362.443 279.202 418.191 239.544 466.102 212.404C480.664 204.151 494.551 195.144 508.776 186.97C590.83 139.813 645.05 105.352 679.867 82.7953C714.962 60.04 732.262 49.2079 774.241 61.0716C799.038 68.3323 822.489 79.5755 843.678 94.3615C869.667 112.455 877.603 123.961 890.419 141.003C896.37 148.939 901.151 157.013 908.274 164.492C937.08 195.045 964.815 216.074 1028.78 229.525C1091.53 242.678 1177.33 240.912 1248.22 219.427C1254.58 217.443 1260.61 215.459 1266.35 213.475C1345.94 184.847 1362.23 157.727 1413.53 151.835C1420.78 151.011 1428.06 150.587 1435.36 150.565C1464.64 150.367 1491.22 155.466 1525.37 164.453C1577.09 178.043 1618.91 196.87 1656.52 211.114C1670.11 216.272 1685.17 221.371 1702.01 225.934C1755.32 240.456 1833.39 252.697 1938.37 246.229" stroke="#CEDCDE" stroke-miterlimit="10"/>
    <path d="M-28.802 360.383C58.4896 364.351 173.02 362.843 287.63 320.943C367.899 291.601 425.571 250.356 472.569 222.502C487.389 213.713 501.435 204.19 515.699 195.421C597.158 145.368 651.081 106.285 687.049 80.355C722.64 54.5643 741.963 41.7483 782.871 53.1359C807.523 60.3779 830.602 72.1666 850.919 87.8938C876.016 107.296 882.662 120.37 893.91 137.749C899.207 146.002 903.512 154.275 910.476 161.893C938.052 192.069 969.517 210.459 1033.22 220.22C1096.92 229.981 1181.79 224.585 1251.25 203.258C1257.56 201.274 1263.55 199.29 1269.24 197.306C1350.86 168.242 1367.39 143.106 1416.05 137.353C1423.23 136.515 1430.44 136.071 1437.66 136.023C1467.42 135.646 1493.92 140.606 1526.93 149.474C1576.35 162.568 1617.38 181.078 1657.02 196.017C1670.55 201.135 1685.49 206.214 1702.13 210.876C1754.92 225.676 1832.61 239.285 1936.47 235.933" stroke="#CEDCDE" stroke-miterlimit="10"/>
    <path d="M-29.6553 369.489C53.4503 374.985 170.143 376.671 290.249 333.66C373.573 303.901 432.971 260.97 479.057 232.481C494.154 223.137 508.359 213.118 522.702 203.754C603.527 150.784 657.171 107.138 694.27 77.7165C730.437 49.1086 751.803 34.0707 791.481 45.002C817.828 52.2631 841.753 67.2812 858.121 81.228C882.344 101.9 887.879 116.581 897.382 134.297C901.985 142.868 905.833 151.339 912.698 159.116C939.064 188.875 974.199 204.528 1037.68 210.698C1102.22 217.026 1186.28 208.059 1254.31 186.891C1260.54 184.907 1266.49 182.923 1272.16 180.939C1355.78 151.419 1372.53 128.266 1418.45 122.672C1425.57 121.821 1432.73 121.351 1439.9 121.263C1470.04 120.688 1496.54 125.529 1528.62 134.218C1575.72 146.836 1615.91 165.008 1657.57 180.661C1671.04 185.72 1685.86 190.819 1702.29 195.541C1754.59 210.638 1831.9 225.616 1934.61 225.299" stroke="#CEDCDE" stroke-miterlimit="10"/>
    <path d="M-30.5281 378.476C48.332 385.479 167.187 390.141 292.848 346.238C379.009 315.765 440.351 271.445 485.564 242.261C500.899 232.342 515.322 221.847 529.626 211.888C609.895 156.12 663.282 107.753 701.511 74.9984C738.273 43.4941 761.465 26.3531 800.23 36.7885C825.644 43.6925 849.451 59.5042 865.441 74.4826C888.792 96.4246 892.998 112.693 900.953 130.766C904.921 139.654 908.274 148.284 915.059 156.219C940.214 185.661 979.079 198.437 1042.33 201.195C1107.79 204.032 1190.94 191.553 1257.54 170.523C1263.72 168.553 1269.62 166.569 1275.26 164.572C1360.92 134.654 1377.88 113.446 1421.11 108.011C1428.17 107.137 1435.27 106.641 1442.38 106.523C1472.93 105.789 1499.44 110.49 1530.48 118.982C1575.24 131.103 1614.7 149.038 1658.41 165.326C1671.82 170.365 1686.5 175.424 1702.75 180.225C1754.53 195.62 1831.46 211.967 1933.04 214.784" stroke="#CEDCDE" stroke-miterlimit="10"/>
    <path d="M-31.4011 387.324C43.1936 395.796 164.331 403.731 295.447 358.677C384.603 327.748 447.751 281.721 492.071 251.963C507.645 241.508 522.226 230.497 536.59 219.943C616.283 161.338 669.511 108.328 708.733 72.122C746.129 37.7013 771.226 18.378 808.821 28.3571C833.322 34.8841 857.029 51.5092 872.603 67.559C895.12 90.7707 897.997 108.665 904.345 127.076C907.559 136.301 910.555 145.11 917.221 153.184C941.325 182.229 983.9 194.132 1046.89 191.454C1113.11 188.637 1195.52 174.809 1260.71 153.938C1266.82 151.967 1272.68 149.984 1278.29 147.986C1366.02 117.791 1383.16 98.3889 1423.69 93.1117C1430.7 92.2313 1437.74 91.7148 1444.8 91.5642C1475.77 90.6913 1502.33 95.2146 1532.25 103.468C1574.61 115.212 1613.37 132.929 1659.08 149.812C1672.43 154.811 1686.99 159.87 1703.02 164.75C1754.31 180.443 1830.87 198.159 1931.29 204.071" stroke="#CEDCDE" stroke-miterlimit="10"/>
    <path d="M-32.3535 396.073C37.9956 405.993 161.394 417.242 297.966 371.017C390.118 339.631 454.952 291.918 498.479 261.485C514.35 250.455 529.09 238.988 543.454 227.759C622.612 166.258 675.542 108.725 715.895 69.0468C754.005 31.7494 781.046 10.3629 817.589 19.846C841.158 25.9961 864.766 43.4148 879.943 60.5358C901.627 84.9775 903.115 104.499 907.976 123.227C910.476 132.79 913.074 141.757 919.641 150.01C942.456 178.657 988.562 185.72 1051.43 181.594C1118.53 177.249 1200.07 157.945 1263.83 137.234C1269.78 135.25 1275.73 133.266 1281.27 131.282C1371 100.631 1388.4 83.192 1426.23 78.0934C1433.17 77.189 1440.16 76.646 1447.16 76.4666C1478.55 75.435 1505.01 79.8194 1533.98 87.9137C1574.11 99.0831 1612.02 116.363 1659.74 134.059C1673.05 139.019 1687.51 143.979 1703.38 149.038C1754.15 164.909 1830.35 184.093 1929.55 193.1" stroke="#CEDCDE" stroke-miterlimit="10"/>
    <path d="M-33.1272 404.723C32.9565 416.17 158.597 430.653 300.664 383.277C395.891 351.436 462.352 301.937 505.006 270.968C521.036 259.343 536.074 247.439 550.437 235.655C629.178 171.535 681.772 109.082 723.037 65.9916C761.762 25.6985 790.589 2.24881 826.2 11.2954C848.836 17.0686 872.385 35.2808 887.145 53.4533C908.016 79.2441 908.075 100.273 911.448 119.359C913.174 129.278 915.416 138.384 921.863 146.796C943.527 175.047 993.284 179.094 1055.92 171.694C1123.82 163.758 1204.59 141.043 1266.9 120.47C1272.86 118.486 1278.67 116.502 1284.2 114.677C1375.96 83.569 1393.56 68.035 1428.71 63.0951C1435.65 62.2036 1442.63 61.6738 1449.62 61.508C1478.72 60.4119 1507.81 64.098 1535.72 72.4194C1573.54 83.1127 1610.67 100.055 1660.41 118.466C1673.66 123.366 1687.99 128.385 1703.6 133.464C1776.59 156.822 1851.65 173.17 1927.74 182.288" stroke="#CEDCDE" stroke-miterlimit="10"/>
    <path d="M-34 413.314C27.8382 426.249 155.74 444.005 303.263 395.458C401.407 363.16 469.633 311.996 511.573 280.392C697.722 139.991 756.644 -16.8165 834.949 2.6456C856.652 8.04181 880.142 27.0476 894.466 46.2915C925.057 87.3583 905.774 118.506 924.224 143.503C969.457 204.805 1172.93 136.341 1287.28 97.8729C1398.77 60.3573 1402.9 48.2754 1451.94 46.2915C1537.55 42.78 1582.05 77.161 1703.9 117.712C1776.35 141.707 1850.67 159.624 1926.09 171.277" stroke="#CEDCDE" stroke-miterlimit="10"/>
    <path d="M-34 418.987C29.4848 433.133 153.419 449.341 294.455 402.878C391.805 370.719 457.135 319.058 502.149 285.828C681.97 153.244 738.055 9.64877 817.828 22.4648C848.995 27.4642 880.638 37.4829 901.528 52.8383C942.575 83.0333 927.319 110.034 951.126 134.178C1003.24 187.069 1193.02 127.691 1301.9 92.3974C1407.96 57.8973 1412.24 48.1365 1464.08 50.1204C1550.22 53.4137 1592.7 83.8467 1707.49 122.771C1779.11 147.043 1852.85 164.519 1927.74 174.967" stroke="#CEDCDE" stroke-miterlimit="10"/>
    <path d="M-34 424.899C71.8733 449.272 182.39 444.299 285.646 410.516C382.203 378.516 444.517 326.319 492.726 291.482C665.98 166.377 720.22 33.8524 800.726 42.5022C841.575 46.9065 879.983 48.0175 908.591 59.6233C957.673 79.4623 948.11 101.484 978.028 125.092C1035.18 170.147 1213.12 119.259 1316.54 87.14C1416.99 55.6555 1421.45 48.0175 1476.24 54.1676C1562.7 63.849 1603.35 90.9491 1711.08 128.068C1781.84 152.6 1854.99 169.636 1929.31 178.896" stroke="#CEDCDE" stroke-miterlimit="10"/>
    <path d="M-34 435.414C68.7904 460.078 176.412 455.696 276.857 422.757C372.601 390.895 431.919 338.163 483.302 301.739C649.632 183.855 702.96 76.4071 783.605 67.1423C834.056 61.3493 878.674 63.73 915.674 70.991C971.58 81.9422 968.326 97.5555 1004.95 120.589C1065.58 158.719 1233.26 115.629 1331.16 86.4853C1426.15 58.2147 1430.58 52.3225 1488.39 62.7975C1575.12 78.51 1613.99 102.614 1714.69 137.948C1784.61 162.77 1857.18 179.374 1930.93 187.426" stroke="#CEDCDE" stroke-miterlimit="10"/>
    <path d="M-34 451.424C65.6997 476.367 170.426 472.557 268.049 440.433C362.998 408.691 419.302 355.423 473.879 317.431C633.166 206.551 685.938 109.36 766.504 97.2181C826.358 88.2112 879.209 74.4429 922.736 87.7946C982.63 106.166 984.872 107.435 1031.85 121.521C1088.37 164.393 1253.37 117.375 1345.8 91.2664C1435.28 66.0708 1439.68 61.9046 1500.55 76.8831C1587.5 98.2894 1624.6 119.795 1718.28 153.263C1787.36 178.367 1859.36 194.535 1932.54 201.373" stroke="#CEDCDE" stroke-miterlimit="10"/>
    <path d="M-34 467.811C62.6043 493.05 164.44 489.867 259.28 458.646C353.436 427.062 406.704 373.199 464.495 333.66C616.581 229.584 668.757 141.757 749.304 127.83C818.74 115.847 876.511 96.8413 929.839 105.154C998.601 115.867 1004.69 111.661 1058.79 123.009C1118.09 161.159 1273.47 119.497 1360.35 96.5834C1444.3 74.4628 1448.71 71.8242 1512.61 91.5046C1599.9 118.327 1635.12 137.551 1721.79 169.115C1790.03 194.502 1861.48 210.234 1934.07 215.856" stroke="#CEDCDE" stroke-miterlimit="10"/>
    <path d="M-34 484.516C59.4867 509.999 158.405 507.412 250.432 477.076C343.794 445.631 393.987 391.173 455.032 350.106C599.856 252.677 651.438 173.737 732.282 158.66C811.102 143.959 874.845 131.897 936.862 122.711C1013.44 111.363 1024.43 116.065 1085.65 124.695C1147.83 158.243 1293.57 121.918 1375.07 102.118C1453.51 83.0729 1457.91 81.8428 1524.85 106.344C1612.3 138.364 1645.77 155.604 1725.38 185.204C1792.79 210.865 1863.69 226.163 1935.68 230.576" stroke="#CEDCDE" stroke-miterlimit="10"/>
    <path d="M-34 501.439C39.8606 522.805 139.591 530.007 241.643 495.745C334.272 464.637 381.31 409.346 445.608 366.791C583.033 275.849 634.079 205.5 715.161 189.728C803.563 172.547 873.873 155.744 943.944 140.507C1027.86 122.235 1046.12 109.479 1112.58 126.62C1181.44 144.376 1313.66 124.636 1389.69 107.892C1462.62 91.9015 1467.06 92.0205 1536.99 121.402C1624.88 158.442 1656.34 173.936 1729.07 201.512C1774.29 218.653 1842.49 241.071 1937.38 245.515" stroke="#CEDCDE" stroke-miterlimit="10"/>
    <path d="M-34 518.659C41.5866 541.196 137.27 546.89 232.835 514.691C324.669 483.742 368.593 427.736 436.185 383.753C566.11 299.18 616.422 237.222 698.059 221.073C796.064 201.671 873.079 179.987 951.007 158.58C1042.48 133.444 1065.32 114.319 1139.48 128.822C1210.16 142.709 1333.74 127.473 1404.33 113.943C1471.78 101.007 1476.38 102.198 1549.15 136.757C1637.48 178.677 1666.88 192.624 1732.66 218.097C1777.22 235.357 1844.42 257.775 1938.99 260.751" stroke="#CEDCDE" stroke-miterlimit="10"/>
    <path d="M-34 536.077C43.3721 559.884 134.949 563.971 224.026 533.855C315.067 503.065 355.837 446.326 426.761 400.934C549.128 322.609 598.765 268.965 680.938 252.637C788.644 231.231 872.385 204.508 958.069 176.872C1057.26 144.891 1084.54 119.835 1166.38 131.242C1238.99 141.36 1353.82 130.627 1418.95 120.212C1480.81 110.292 1485.71 112.574 1561.29 152.331C1650.17 199.052 1677.39 211.59 1736.25 234.901C1780.18 252.3 1846.32 274.797 1940.6 276.186" stroke="#CEDCDE" stroke-miterlimit="10"/>
    <path d="M-34 553.754C45.0188 578.692 132.648 581.291 215.218 553.258C305.465 522.607 343.04 465.074 417.337 418.353C532.066 346.178 579.68 291.165 663.837 284.439C783.149 274.897 871.75 229.287 965.132 195.402C1072.12 156.596 1107.97 106.126 1193.28 133.901C1264.54 157.172 1373.82 133.901 1433.59 126.719C1489.89 119.874 1495.09 123.108 1573.46 168.123C1662.95 219.566 1687.87 230.874 1739.85 251.943C1783.11 269.5 1848.25 292.018 1942.2 291.879" stroke="#CEDCDE" stroke-miterlimit="10"/>
    <path d="M-34 572.006C46.7448 598.154 130.327 599.146 206.429 573.355C295.863 542.843 330.205 484.437 407.914 436.466C515.045 370.342 562.004 325.03 646.716 316.936C775.67 304.576 871.194 254.78 972.215 214.626C1087.08 168.996 1125.71 115.212 1220.2 137.254C1295.15 154.752 1393.95 138.007 1448.21 133.921C1498.98 130.092 1504.63 134.258 1585.6 184.629C1675.81 240.734 1698.34 250.911 1743.46 269.679C1786.05 287.415 1850.17 309.913 1943.83 308.246" stroke="#CEDCDE" stroke-miterlimit="10"/>
    <path d="M-34 591.408C48.4509 618.766 127.986 618.231 197.62 594.384C286.261 564.011 317.309 504.652 398.49 455.511C497.804 395.379 544.307 359.827 629.615 350.364C768.25 334.989 870.679 281.225 979.277 234.802C1102.12 182.288 1143.94 126.322 1247.1 141.558C1325.55 153.144 1413.99 142.947 1462.85 142.054C1508.05 141.221 1514.22 146.3 1597.76 202.067C1688.72 262.795 1708.86 271.96 1747.05 288.367C1788.97 306.341 1852.19 328.759 1945.44 325.565" stroke="#CEDCDE" stroke-miterlimit="10"/>
    <path d="M-34 611.148C50.1769 639.716 125.664 637.613 188.812 615.87C276.659 585.615 304.354 525.186 389.067 475.013C480.624 420.773 526.551 395.042 612.494 384.249C760.731 365.64 870.203 308.107 986.34 255.415C1117.28 196.036 1162.63 138.702 1274.01 146.3C1355.74 151.875 1434.05 148.284 1477.47 150.645C1517.07 152.767 1523.86 158.719 1609.9 219.962C1701.73 285.292 1719.17 293.625 1750.64 307.512C1791.84 325.784 1854 348.083 1947.04 343.341" stroke="#CEDCDE" stroke-miterlimit="10"/>
    <path d="M-34 632.634C51.9029 662.393 123.284 658.623 180.003 639.082C266.997 608.768 291.3 547.287 379.643 496.241C463.404 447.833 508.775 431.962 595.393 419.86C753.152 397.819 869.766 336.735 993.323 277.753C1132.2 211.511 1182.17 161.814 1300.83 152.768C1385.38 146.34 1454.01 155.347 1492.04 160.961C1526.1 166 1533.5 172.865 1621.98 239.563C1714.71 309.516 1729.47 316.936 1754.15 328.343C1794.58 347.051 1855.84 369.092 1948.57 362.823" stroke="#CEDCDE" stroke-miterlimit="10"/>
    <path d="M-34 653.901C53.6091 684.87 120.963 679.553 171.215 662.095C257.395 631.92 278.127 568.971 370.22 517.27C446.164 474.636 490.96 468.664 578.271 455.273C745.534 429.621 869.349 365.144 1000.49 299.914C1147.47 226.767 1202.15 172.944 1327.83 159.057C1415.12 149.454 1474.18 162.092 1506.74 171.079C1535.29 179.015 1543.36 186.752 1634.2 258.986C1727.92 333.501 1739.87 340.187 1757.84 349.015C1797.36 368.418 1857.85 389.903 1950.28 382.107" stroke="#CEDCDE" stroke-miterlimit="10"/>
    <path d="M-34 675.189C55.2755 707.348 118.76 700.503 162.406 685.108C247.714 655.072 264.815 590.337 360.796 538.299C428.923 501.359 473.125 505.367 561.17 490.686C737.837 461.225 868.953 393.475 1007.55 322.054C1162.65 242.023 1222.19 183.994 1354.73 165.326C1445.1 152.609 1494.34 168.738 1521.38 181.197C1544.45 191.831 1553.12 200.619 1646.36 278.408C1741.1 357.506 1750.12 363.518 1761.43 369.668C1799.66 390.479 1859.75 410.735 1951.88 401.41" stroke="#CEDCDE" stroke-miterlimit="10"/>
</svg>