<svg width="69" height="40" viewBox="0 0 69 40" fill="none" xmlns="http://www.w3.org/2000/svg">
<g id="Form">
<path id="Vector" d="M37.1506 14.6499C37.1506 16.4599 38.6106 17.9299 40.4306 17.9399L66.4706 17.9899C63.9406 13.5199 59.1506 10.4899 53.6406 10.4799C53.0406 10.4799 52.4606 10.5099 51.8806 10.5799C49.0706 4.98989 43.6206 0.969893 37.1706 0.139893L37.1406 14.6499H37.1506Z" fill="#0092DB"/>
<path id="Vector_2" d="M37.1316 24.3801L37.1016 39.9701L53.7016 40.0001C53.7016 40.0001 53.7816 40.0001 53.8216 40.0001C61.8616 39.8901 68.3616 33.3401 68.3716 25.2601C68.3716 23.8301 68.1716 22.4501 67.7916 21.1501L40.4116 21.1001C38.6016 21.1001 37.1316 22.5601 37.1216 24.3801H37.1316Z" fill="#101AB7"/>
<path id="Vector_3" d="M33.71 22.02L33.75 0C27.3 0.31 21.69 3.8 18.44 8.94C17.34 8.74 16.2 8.65 15.03 8.7C6.77 9 0.1 15.84 0 24.11C0 24.49 0 24.87 0.03 25.24L30.43 25.29C32.24 25.29 33.71 23.83 33.72 22.01L33.71 22.02Z" fill="#3FA9F5"/>
<path id="Vector_4" d="M33.6891 31.7499C33.6891 29.9399 32.2291 28.4699 30.4091 28.4599L0.539062 28.4099C1.99906 33.7899 6.25906 38.0099 11.6591 39.4199C12.4391 39.7399 13.2891 39.9199 14.1791 39.9199L33.6691 39.9499V31.7399L33.6891 31.7499Z" fill="#1F37E5"/>
</g>
</svg>
